<mxfile host="app.diagrams.net" agent="Mozilla/5.0 (Macintosh; Intel Mac OS X 10_15_7) AppleWebKit/537.36 (KHTML, like Gecko) Chrome/123.0.0.0 Safari/537.36" version="24.7.6">
  <diagram name="Page-1" id="RCbGUIcbfS4RPRtHN16q">
    <mxGraphModel dx="954" dy="547" grid="1" gridSize="10" guides="1" tooltips="1" connect="1" arrows="1" fold="1" page="1" pageScale="1" pageWidth="827" pageHeight="1169" math="0" shadow="0">
      <root>
        <mxCell id="0" />
        <mxCell id="1" parent="0" />
        <mxCell id="FsOBN7YNcrXlZLE7wFAp-9" value="" style="whiteSpace=wrap;html=1;aspect=fixed;" vertex="1" parent="1">
          <mxGeometry x="180" y="40" width="480" height="480" as="geometry" />
        </mxCell>
        <mxCell id="FsOBN7YNcrXlZLE7wFAp-10" value="&lt;span style=&quot;font-size: 18px;&quot;&gt;Page name&lt;/span&gt;" style="rounded=1;whiteSpace=wrap;html=1;" vertex="1" parent="1">
          <mxGeometry x="180" y="40" width="480" height="30" as="geometry" />
        </mxCell>
        <mxCell id="FsOBN7YNcrXlZLE7wFAp-11" value="Enter run info" style="rounded=1;whiteSpace=wrap;html=1;" vertex="1" parent="1">
          <mxGeometry x="210" y="190" width="120" height="40" as="geometry" />
        </mxCell>
        <mxCell id="FsOBN7YNcrXlZLE7wFAp-12" value="Logo" style="whiteSpace=wrap;html=1;aspect=fixed;" vertex="1" parent="1">
          <mxGeometry x="190" y="77" width="63" height="63" as="geometry" />
        </mxCell>
        <mxCell id="FsOBN7YNcrXlZLE7wFAp-13" value="Run title" style="rounded=0;whiteSpace=wrap;html=1;" vertex="1" parent="1">
          <mxGeometry x="210" y="240" width="120" height="20" as="geometry" />
        </mxCell>
        <mxCell id="FsOBN7YNcrXlZLE7wFAp-14" value="Distance" style="rounded=0;whiteSpace=wrap;html=1;" vertex="1" parent="1">
          <mxGeometry x="210" y="270" width="120" height="20" as="geometry" />
        </mxCell>
        <mxCell id="FsOBN7YNcrXlZLE7wFAp-15" value="Time" style="rounded=0;whiteSpace=wrap;html=1;" vertex="1" parent="1">
          <mxGeometry x="210" y="300" width="120" height="20" as="geometry" />
        </mxCell>
        <mxCell id="FsOBN7YNcrXlZLE7wFAp-16" value="Notes" style="rounded=0;whiteSpace=wrap;html=1;" vertex="1" parent="1">
          <mxGeometry x="210" y="330" width="120" height="20" as="geometry" />
        </mxCell>
        <mxCell id="FsOBN7YNcrXlZLE7wFAp-18" value="Get run info" style="rounded=1;whiteSpace=wrap;html=1;" vertex="1" parent="1">
          <mxGeometry x="360" y="190" width="120" height="40" as="geometry" />
        </mxCell>
        <mxCell id="FsOBN7YNcrXlZLE7wFAp-19" value="Output of run ID" style="rounded=1;whiteSpace=wrap;html=1;fillColor=#00CC00;" vertex="1" parent="1">
          <mxGeometry x="210" y="390" width="120" height="30" as="geometry" />
        </mxCell>
        <mxCell id="FsOBN7YNcrXlZLE7wFAp-20" value="Run ID" style="rounded=0;whiteSpace=wrap;html=1;" vertex="1" parent="1">
          <mxGeometry x="360" y="240" width="120" height="20" as="geometry" />
        </mxCell>
        <mxCell id="FsOBN7YNcrXlZLE7wFAp-21" value="Submit button" style="rounded=0;whiteSpace=wrap;html=1;" vertex="1" parent="1">
          <mxGeometry x="210" y="360" width="120" height="20" as="geometry" />
        </mxCell>
        <mxCell id="FsOBN7YNcrXlZLE7wFAp-22" value="Submit button" style="rounded=0;whiteSpace=wrap;html=1;" vertex="1" parent="1">
          <mxGeometry x="360" y="270" width="120" height="20" as="geometry" />
        </mxCell>
        <mxCell id="FsOBN7YNcrXlZLE7wFAp-23" value="Local weather report" style="rounded=1;whiteSpace=wrap;html=1;" vertex="1" parent="1">
          <mxGeometry x="470" y="117" width="170" height="40" as="geometry" />
        </mxCell>
        <mxCell id="FsOBN7YNcrXlZLE7wFAp-24" value="Log in" style="rounded=1;whiteSpace=wrap;html=1;" vertex="1" parent="1">
          <mxGeometry x="562" y="74" width="90" height="30" as="geometry" />
        </mxCell>
        <mxCell id="FsOBN7YNcrXlZLE7wFAp-25" value="Get all run info" style="rounded=1;whiteSpace=wrap;html=1;" vertex="1" parent="1">
          <mxGeometry x="510" y="190" width="120" height="40" as="geometry" />
        </mxCell>
        <mxCell id="FsOBN7YNcrXlZLE7wFAp-27" value="Submit button" style="rounded=0;whiteSpace=wrap;html=1;" vertex="1" parent="1">
          <mxGeometry x="510" y="240" width="120" height="20" as="geometry" />
        </mxCell>
        <mxCell id="FsOBN7YNcrXlZLE7wFAp-28" value="Data display in rows" style="rounded=0;whiteSpace=wrap;html=1;" vertex="1" parent="1">
          <mxGeometry x="510" y="270" width="120" height="60" as="geometry" />
        </mxCell>
        <mxCell id="FsOBN7YNcrXlZLE7wFAp-30" value="Individual run data display" style="rounded=0;whiteSpace=wrap;html=1;" vertex="1" parent="1">
          <mxGeometry x="360" y="300" width="120" height="40" as="geometry" />
        </mxCell>
        <mxCell id="FsOBN7YNcrXlZLE7wFAp-33" value="" style="endArrow=none;html=1;rounded=0;entryX=0;entryY=0.5;entryDx=0;entryDy=0;" edge="1" parent="1" target="FsOBN7YNcrXlZLE7wFAp-20">
          <mxGeometry width="50" height="50" relative="1" as="geometry">
            <mxPoint x="120" y="480" as="sourcePoint" />
            <mxPoint x="460" y="250" as="targetPoint" />
            <Array as="points">
              <mxPoint x="360" y="480" />
            </Array>
          </mxGeometry>
        </mxCell>
        <mxCell id="FsOBN7YNcrXlZLE7wFAp-34" value="Run ID and Submit button disappear on click" style="whiteSpace=wrap;html=1;aspect=fixed;" vertex="1" parent="1">
          <mxGeometry x="40" y="434" width="90" height="90" as="geometry" />
        </mxCell>
        <mxCell id="FsOBN7YNcrXlZLE7wFAp-36" value="" style="endArrow=none;html=1;rounded=0;entryX=0;entryY=1;entryDx=0;entryDy=0;" edge="1" parent="1" target="FsOBN7YNcrXlZLE7wFAp-27">
          <mxGeometry width="50" height="50" relative="1" as="geometry">
            <mxPoint x="360" y="480" as="sourcePoint" />
            <mxPoint x="460" y="250" as="targetPoint" />
            <Array as="points">
              <mxPoint x="510" y="480" />
            </Array>
          </mxGeometry>
        </mxCell>
        <mxCell id="FsOBN7YNcrXlZLE7wFAp-37" value="Events" style="rounded=1;whiteSpace=wrap;html=1;" vertex="1" parent="1">
          <mxGeometry x="462" y="74" width="90" height="30" as="geometry" />
        </mxCell>
        <mxCell id="FsOBN7YNcrXlZLE7wFAp-38" value="Freinds" style="rounded=1;whiteSpace=wrap;html=1;" vertex="1" parent="1">
          <mxGeometry x="362" y="74" width="90" height="30" as="geometry" />
        </mxCell>
        <mxCell id="FsOBN7YNcrXlZLE7wFAp-39" value="Home" style="rounded=1;whiteSpace=wrap;html=1;" vertex="1" parent="1">
          <mxGeometry x="262" y="74" width="90" height="30" as="geometry" />
        </mxCell>
      </root>
    </mxGraphModel>
  </diagram>
</mxfile>
